Coordinates
version=1
nRows=15
nColumns=42
inDegrees=yes

Units are S.I. units (second, meters, Newtons, ...)
If the header above contains a line with 'inDegrees', this indicates whether rotational values are in degrees (yes) or radians (no).

endheader
time	pelvis_tilt	pelvis_list	pelvis_rotation	pelvis_tx	pelvis_ty	pelvis_tz	hip_flexion_r	hip_adduction_r	hip_rotation_r	knee_angle_r	knee_adduction_r	knee_angle_r_beta	ankle_angle_r	subtalar_angle_r	mtp_angle_r	hip_flexion_l	hip_adduction_l	hip_rotation_l	knee_angle_l	knee_adduction_l	knee_angle_l_beta	ankle_angle_l	subtalar_angle_l	mtp_angle_l	lumbar_extension	lumbar_bending	lumbar_rotation	arm_flex_r	arm_add_r	arm_rot_r	elbow_flex_r	pro_sup_r	wrist_flex_r	wrist_dev_r	arm_flex_l	arm_add_l	arm_rot_l	elbow_flex_l	pro_sup_l	wrist_flex_l	wrist_dev_l
      2.19000000	     -0.28234649	      1.88766812	     -3.47459954	      0.08082677	      0.98033849	      0.29218303	      4.83168322	     -9.06937401	      2.11230410	     52.73301079	      5.71635851	      0.92036466	      2.86210933	      4.96648461	     -7.50862336	      7.19491447	      2.52538858	    -13.24498339	      5.87480979	     -0.44644050	      0.10253477	      3.10338981	     19.18508674	     -7.50862336	     -9.24181422	     -4.31678237	     -0.76590943	     -0.97128170	    -13.94424191	     12.07529269	     32.24682824	     90.00000001	      0.00000000	      0.00000000	     -2.38138458	    -15.34187257	     15.49063756	     28.39526284	     90.00000001	      0.00000000	      0.00000000
      2.20000000	     -0.20517890	      1.87593963	     -3.11676052	      0.09035178	      0.98098073	      0.29030576	      6.29385102	     -9.17500925	      1.30376173	     54.05436965	      5.29374874	      0.94342673	      4.06515672	      6.45699921	     -7.50819171	      6.36488329	      2.73113117	    -12.97777944	      5.59418590	     -0.46197545	      0.09763696	      3.56035801	     19.65117714	     -7.50819171	     -9.30610422	     -4.13554163	     -1.22826934	     -1.48172724	    -13.81336301	     11.83155210	     32.09321557	     90.00000001	      0.00000000	      0.00000000	     -1.50769443	    -15.67680753	     17.07710863	     28.60779905	     90.00000001	      0.00000000	      0.00000000
      2.21000000	     -0.02485735	      1.62880725	     -2.81692867	      0.09975836	      0.98186820	      0.28871898	      7.53415352	     -8.93826478	      1.11087732	     54.95119696	      5.35119726	      0.95907931	      4.89720092	      6.64840501	     -7.50805065	      5.45347304	      2.61036611	    -12.67736386	      5.42996405	     -0.38914345	      0.09477075	      4.09339086	     19.94791874	     -7.50805065	     -9.51166358	     -3.71574031	     -1.63941861	     -1.91864373	    -13.72602721	     11.78640300	     31.89130266	     90.00000001	      0.00000000	      0.00000000	     -0.60944548	    -15.74321613	     17.43343977	     28.69994111	     90.00000001	      0.00000000	      0.00000000
      2.22000000	      0.17639014	      1.40616395	     -2.48298817	      0.10889753	      0.98275884	      0.28706179	      8.74073166	     -8.76184169	      0.93020041	     55.58005558	      5.55161049	      0.97005497	      5.44965461	      6.88606828	     -7.50795888	      4.63917032	      2.51554722	    -12.50026040	      5.44240364	     -0.36001676	      0.09498786	      4.44250747	     20.10062058	     -7.50795888	     -9.77992169	     -3.31286450	     -2.07615646	     -2.33959816	    -13.63908260	     11.73900164	     31.75113252	     90.00000001	      0.00000000	      0.00000000	      0.30374955	    -15.80786361	     17.68167560	     28.87177837	     90.00000001	      0.00000000	      0.00000000
      2.23000000	      0.28315665	      1.26087740	     -1.98598143	      0.11849029	      0.98334179	      0.28528047	      9.92757193	     -8.67032042	     -0.00932147	     55.92557238	      5.21113830	      0.97608537	      6.60896766	      8.53922067	     -7.50761906	      3.78700755	      2.58229978	    -11.84419118	      5.19849156	     -0.43394283	      0.09073079	      4.97273168	     20.39212560	     -7.50761906	     -9.83409022	     -2.97002248	     -2.48409596	     -2.97534434	    -13.43146274	     11.06182782	     31.59236281	     90.00000001	      0.00000000	      0.00000000	      1.35490347	    -16.16228117	     19.67861076	     28.96505366	     90.00000001	      0.00000000	      0.00000000
      2.24000000	      0.43806964	      1.15320909	     -1.68768447	      0.12760299	      0.98410865	      0.28367089	     11.07315167	     -8.56206688	     -0.14351806	     55.92215991	      5.42210550	      0.97602582	      6.78914093	      8.55936884	     -7.50756050	      3.12617250	      2.60245134	    -11.96670244	      5.38203082	     -0.45204768	      0.09393416	      5.13041853	     20.30706077	     -7.50756050	    -10.02498190	     -2.68303916	     -2.87283430	     -3.42543830	    -13.34935964	     11.07366807	     31.47114520	     90.00000001	      0.00000000	      0.00000000	      2.21944399	    -16.22471458	     19.66292199	     29.33471106	     90.00000001	      0.00000000	      0.00000000
      2.25000000	      0.47166165	      0.86592726	     -1.34989554	      0.13689582	      0.98445456	      0.28205735	     12.31896479	     -8.26881161	     -0.47628423	     55.83438205	      5.59259188	      0.97449380	      7.89725206	      8.68674796	     -7.50745114	      2.29670478	      2.50172467	    -11.22342473	      5.00418324	     -0.54998671	      0.08733947	      6.00707044	     20.84091871	     -7.50745114	    -10.01741792	     -2.17764928	     -3.13034803	     -3.94619117	    -13.25320209	     10.87186623	     31.21810138	     90.00000001	      0.00000000	      0.00000000	      3.23356663	    -16.22709447	     20.27848135	     29.33412042	     90.00000001	      0.00000000	      0.00000000
      2.26000000	      0.57576739	      0.63902870	     -0.90968483	      0.14624166	      0.98493702	      0.28039927	     13.31300725	     -8.03712258	     -0.93462122	     55.25347847	      5.74123556	      0.96435512	      8.52505117	      8.92291018	     -7.50732383	      1.51818886	      2.44399380	    -10.76268885	      4.85752978	     -0.65941220	      0.08477989	      6.49784639	     21.11364597	     -7.50732383	    -10.09104602	     -1.73631569	     -3.50065997	     -4.51081396	    -13.13000804	     10.50603184	     31.07006901	     90.00000001	      0.00000000	      0.00000000	      4.20059901	    -16.36904051	     21.04657100	     29.48541283	     90.00000001	      0.00000000	      0.00000000
      2.27000000	      0.68675864	      0.62944795	     -0.66681009	      0.15491054	      0.98524115	      0.27896617	     14.50063753	     -8.01278575	     -1.16966443	     54.74920149	      5.89861531	      0.95555383	      8.61082295	      8.91586894	     -7.50726921	      0.95121350	      2.52381527	    -10.93531162	      5.08007998	     -0.66002407	      0.08866412	      6.60035044	     20.98174838	     -7.50726921	    -10.26383014	     -1.56820427	     -3.78203747	     -4.92513499	    -13.03572485	     10.50138539	     30.98942151	     90.00000001	      0.00000000	      0.00000000	      5.12164331	    -16.46325648	     21.02233742	     29.91849441	     90.00000001	      0.00000000	      0.00000000
      2.28000000	      1.23092173	      0.07481616	     -0.02214709	      0.16504637	      0.98615509	      0.27751117	     14.58863984	     -7.38850419	     -2.31941882	     53.28609386	      5.74160761	      0.93001778	      9.25058786	      8.99870687	     -7.50695012	     -0.56204232	      2.03775584	     -9.94463865	      4.53681965	     -0.65623319	      0.07918244	      7.23627192	     21.41862151	     -7.50695012	    -10.72784479	     -0.77643354	     -4.07257590	     -5.59570935	    -12.64321640	      9.00852541	     30.69149186	     90.00000001	      0.00000000	      0.00000000	      6.12637406	    -16.90846170	     23.48671767	     30.44692826	     90.00000001	      0.00000000	      0.00000000
      2.29000000	      1.20503288	      0.01478370	      0.23047886	      0.17423960	      0.98603784	      0.27607547	     15.64945445	     -7.28455763	     -2.64871721	     52.12567764	      5.88693037	      0.90976470	      9.67183296	      8.79573220	     -7.50682217	     -1.20636088	      2.12213012	     -9.67021470	      4.36823950	     -0.76481582	      0.07624016	      7.74107806	     21.62055109	     -7.50682217	    -10.64618280	     -0.54005178	     -4.25410953	     -6.12531261	    -12.50910994	      8.78877234	     30.50743320	     90.00000001	      0.00000000	      0.00000000	      6.95963781	    -16.99467868	     23.76728907	     30.90233079	     90.00000001	      0.00000000	      0.00000000
      2.30000000	      1.55255769	     -0.24817013	      0.60255111	      0.18370857	      0.98635834	      0.27485105	     16.05872151	     -6.90003935	     -3.21165681	     50.47118701	      5.94283087	      0.88088839	      9.78582654	      8.24395320	     -7.50654042	     -2.30198690	      1.89107277	     -9.35081929	      4.14821095	     -0.74332191	      0.07239994	      8.11143363	     21.76291020	     -7.50654042	    -10.96853456	     -0.09278407	     -4.47736282	     -6.61619258	    -12.25600090	      8.07378863	     30.29004480	     90.00000001	      0.00000000	      0.00000000	      7.81712685	    -17.21950835	     24.51732699	     31.50433490	     90.00000001	      0.00000000	      0.00000000
      2.31000000	      1.72738692	     -0.37745826	      0.88432363	      0.19310476	      0.98625840	      0.27360692	     16.65182444	     -6.65799852	     -3.66958467	     48.70171046	      6.00957391	      0.85000520	      9.91765262	      7.73664391	     -7.50628944	     -3.19459425	      1.82866155	     -9.12462242	      3.94762497	     -0.77206859	      0.06889905	      8.55228365	     21.94391355	     -7.50628944	    -11.09811896	      0.21050272	     -4.66389670	     -7.09426839	    -12.06515473	      7.65124302	     30.07983611	     90.00000001	      0.00000000	      0.00000000	      8.58590453	    -17.35566240	     24.80774739	     32.10624956	     90.00000001	      0.00000000	      0.00000000
      2.32000000	      1.73003129	     -0.37109158	      1.09254463	      0.20243870	      0.98571169	      0.27233408	     17.42402021	     -6.56791565	     -4.07000171	     46.83335731	      6.06393667	      0.81739628	     10.04493052	      7.44542797	     -7.50616396	     -3.89315093	      1.95241499	     -8.93977709	      3.75843885	     -0.87136239	      0.06559713	      9.09110873	     22.17536217	     -7.50616396	    -11.03919926	      0.36272713	     -4.82299671	     -7.56595562	    -11.92458333	      7.48471637	     29.88137465	     90.00000001	      0.00000000	      0.00000000	      9.27369304	    -17.44659444	     24.83527531	     32.73738704	     90.00000001	      0.00000000	      0.00000000
      2.33000000	      1.84471576	     -0.38442829	      1.29985131	      0.21190056	      0.98518835	      0.27119023	     17.94531904	     -6.42199409	     -4.55442530	     44.68864731	      6.06170390	      0.77996403	     10.02761090	      7.07746079	     -7.50604538	     -4.71564654	      2.03390403	     -8.81377584	      3.58136020	     -0.96587942	      0.06250653	      9.58646168	     22.38370096	     -7.50604538	    -11.10338524	      0.53184597	     -4.99249305	     -7.99845213	    -11.75543731	      7.28724376	     29.65152224	     90.00000001	      0.00000000	      0.00000000	      9.90042566	    -17.57074176	     24.85695092	     33.46440818	     90.00000001	      0.00000000	      0.00000000
